<mxfile host="app.diagrams.net" modified="2024-05-25T09:00:44.487Z" agent="Mozilla/5.0 (X11; Ubuntu; Linux x86_64; rv:124.0) Gecko/20100101 Firefox/124.0" version="24.4.8" etag="bXU1dWnCiWtSBM4e_Otq" type="github">
  <diagram name="Page-1" id="MH9LjkOC0qe0W5oOU_Vo">
    <mxGraphModel>
      <root>
        <mxCell id="0" />
        <mxCell id="1" parent="0" />
      </root>
    </mxGraphModel>
  </diagram>
</mxfile>
